<?xml version="1.0" encoding="utf-8"?>
<!-- Generator: Adobe Illustrator 20.0.0, SVG Export Plug-In . SVG Version: 6.00 Build 0)  -->
<svg version="1.1" baseProfile="basic" id="Layer_2"
	 xmlns="http://www.w3.org/2000/svg" xmlns:xlink="http://www.w3.org/1999/xlink" x="0px" y="0px" viewBox="0 0 1011 238.5"
	 xml:space="preserve">
<style type="text/css">
	.st0{fill:#ffffff;}
</style>
<path class="st0" d="M596,36.6l-234.9,0c-8.8,0-15.9-7.1-15.9-15.9v-1.1c0-8.8,7.1-15.9,15.9-15.9l234.9,0c8.8,0,15.9,7.1,15.9,15.9
	v1.1C611.9,29.5,604.8,36.6,596,36.6z"/>
<path class="st0" d="M596,168.9H361.1c-8.8,0-15.9-7.1-15.9-15.9v-1.1c0-8.8,7.1-15.9,15.9-15.9H596c8.8,0,15.9,7.1,15.9,15.9v1.1
	C611.9,161.8,604.8,168.9,596,168.9z"/>
<path class="st0" d="M579.6,102.8H377.4c-8.2,0-14.8-6.6-14.8-14.8v-3.2c0-8.2,6.6-14.8,14.8-14.8h202.2c8.2,0,14.8,6.6,14.8,14.8
	v3.2C594.5,96.1,587.8,102.8,579.6,102.8z"/>
<path class="st0" d="M320,112.3l29.6,3c6.9,0.7,11,3.6,8.9,6.3c-11.9,15.3-31.1,27.2-57.7,35.7c-29.5,9.4-65.6,14-108.2,14
	c-44.1,0-80-3.6-107.7-10.8c-27.7-7.2-48.7-17.6-63.1-31.2C7.2,115.6,0,101,0,85.3c0-17.1,8.1-32,24.4-44.7
	C40.7,28,63.9,18.3,94,11.7c30.1-6.6,63.2-9.9,99.3-9.9c41,0,75.4,4.2,103.4,12.5c24.6,7.3,42.6,17.3,54,29.9
	c2.6,2.8-1.6,5.9-8.9,6.6l-29.2,2.8c-6.1,0.6-12.3-0.7-14.5-3.1c-9.3-9.8-21.9-17.2-37.8-22c-18.1-5.4-40.8-8.2-68.2-8.2
	c-31.5,0-57.8,3-78.9,9.1c-21.1,6-36,14.1-44.6,24.3c-8.6,10.2-12.8,20.7-12.8,31.5c0,13.9,5.1,26.1,15.2,36.5
	c10.1,10.4,25.9,18.2,47.3,23.3c21.4,5.1,44.6,7.7,69.6,7.7c30.4,0,56-3.5,77.1-10.5c18.6-6.2,31.9-15,39.9-26.5
	C306.7,113.1,313.5,111.6,320,112.3z"/>
<path class="st0" d="M615.7,158.1V15c0-7.3,14.9-13.2,33.3-13.2h25.3c14.3,0,27,3.6,31.6,9l90.4,107c9,10.8,15.6,18.9,19.8,24.3
	c4.7-6,12.1-14.7,22-26.3l91.4-105.1c4.6-5.3,17.3-8.9,31.5-8.9h16.7c18.4,0,33.3,5.9,33.3,13.2v143.1c0,4.2-8.6,7.6-19.2,7.6h-14.5
	c-10.6,0-19.2-3.4-19.2-7.6V28.6L842.3,160.6c-2.7,3.1-9.9,5.1-18.1,5.1h-22.1c-8.2,0-15.5-2.1-18.1-5.1L668.5,26.2v131.9
	c0,4.2-8.6,7.6-19.2,7.6h-14.5C624.3,165.7,615.7,162.3,615.7,158.1z"/>
<g class="st0">
	<path d="M61.4,187.8c7.5,0,13.4,3.2,15.9,11.8l-8.1,2c-1-4.1-3.8-6.8-8.6-6.8s-10,2.7-10,14.1c0,5.8,1.4,9.7,4.1,11.9
		c1.8,1.5,4,2,5.8,2c4.3,0,7.6-2.6,9-8.6l7.9,2.5c-2.4,8.8-8,13-16.8,13.1c-10.7,0-18.5-7.4-18.5-20.8
		C42.2,195.6,49.7,187.8,61.4,187.8z"/>
	<path d="M81.5,188.5h16.8v15.3h5.4c6,0,9.5,0.2,12.7,2.5c3,2.1,4.8,5.6,4.8,10.3c0,6.5-3.5,9.7-5.7,10.9c-2.5,1.2-4.6,1.6-12.1,1.6
		H90.1v-33.7h-8.6V188.5z M102.2,222.2c6.8,0,7.2-0.4,9.2-2.1c1.1-1,1.3-2.8,1.3-3.7c0-1.2-0.3-2.3-0.9-3.2c-1.2-1.9-3-2.6-9-2.6
		h-4.5v11.5H102.2z"/>
	<path d="M143.9,188.5c5.7,0,8.4,0.3,11.1,1.9c2.7,1.7,4.7,4.7,4.7,8.4c0,3.7-2.1,7.1-5.7,8.8c5,1.5,7.7,5.1,7.7,9.8
		c0,4.6-2.5,8.1-5.5,9.9c-2.7,1.6-5.9,1.8-14.6,1.8h-13.8v-40.5H143.9z M141.3,204.6c4.7,0,6.7,0,8.1-0.8c1.4-0.7,2.3-2,2.3-3.9
		c0-1.9-0.8-3.3-2.1-4c-0.8-0.4-2-0.7-8.9-0.7h-4.7v9.4H141.3z M143.5,222.2c4.9,0,5.9-0.1,7.1-0.7c1.5-0.7,2.6-2,2.6-4.5
		c0-1.9-0.6-3.3-2-4.3c-1.4-1-3.1-1.3-8.6-1.3h-6.6v10.8H143.5z"/>
	<path d="M168.5,188.5h30v6.8h-21.9v9H197v6.8h-20.3v11h22.6v6.8h-30.7V188.5z"/>
	<path d="M203.3,188.5h32.2v6.8h-12V229h-8.1v-33.7h-12V188.5z"/>
	<path d="M263,215c0.8,5,3.6,7.9,8.9,7.9c4.6,0,7.5-2.1,7.5-6.1c0-4.6-3.8-5.4-7.7-5.4h-4.8v-6.8h5.4c4.2,0,6.1-2.2,6.1-5.3
		c0-3.6-2.6-4.6-6.5-4.6c-5.1,0-6.8,1.8-7.6,5.8l-7.7-0.3c0.3-7.3,5.5-12.3,15.4-12.3c10.4,0,14.4,5.4,14.4,10.6c0,4.8-3.4,8.1-7,9
		c3.7,0.9,8.6,3.5,8.6,9.9c0,4.6-2.5,8.7-7.2,10.7c-2.5,1.1-5.6,1.6-8.9,1.6c-10.5,0-15.7-5-16.8-14L263,215z"/>
	<path d="M305.6,188.5h8.6l16.2,40.5h-8.9l-3.5-9.2h-16.2l-3.3,9.2h-8.6L305.6,188.5z M315.4,213l-5.5-15.1l-5.5,15.1H315.4z"/>
	<path d="M350.5,188.5h30v6.8h-21.9v9H379v6.8h-20.3v11h22.6v6.8h-30.7V188.5z"/>
	<path d="M398.6,188.5h8.6l14.9,40.5h-8.9l-10.5-31.1L392.6,229H384L398.6,188.5z"/>
	<path d="M426.2,188.5h30v6.8h-21.9v9h20.3v6.8h-20.3v11H457v6.8h-30.7V188.5z"/>
	<path d="M464,188.5h8.1v18l16.5-18h11l-15.3,15.8l16,24.7h-10.6l-11.1-19l-6.6,6.8V229H464V188.5z"/>
	<path d="M501.8,188.5h32.2v6.8h-12V229h-8.1v-33.7h-12V188.5z"/>
	<path d="M539.2,188.5h13.1c7.5,0,9.7,0.3,12.1,1.6c2.2,1.1,5.7,4.4,5.7,10.9c0,4.8-1.9,8.2-4.8,10.2c-3.2,2.3-6.7,2.5-12.7,2.5
		h-5.4V229h-8.1V188.5z M551.8,206.8c5.5,0,7.8-0.6,9-2.6c0.6-0.9,0.9-1.9,0.9-3.1c0-0.8-0.2-2.7-1.3-3.7c-1.9-1.7-2.3-2.1-9.2-2.1
		h-4v11.5H551.8z"/>
	<path d="M594.8,187.8c11.9,0,19.7,7.8,19.7,21c0,12.9-7.5,20.8-19.6,20.8c-12,0-19.7-7.6-19.7-20.9
		C575.2,195.2,583.2,187.8,594.8,187.8z M594.9,222.7c6.4,0,11.1-4.6,11.1-14.1c0-9.3-4.4-13.8-11.1-13.8c-6.7,0-11.3,4.6-11.3,13.8
		C583.6,217.9,588.4,222.7,594.9,222.7z"/>
	<path d="M620.9,188.5h8.2v15.9h16v-15.9h8.2V229h-8.2v-17.7h-16V229h-8.2V188.5z"/>
	<path d="M661.7,188.5h8.2v15.9h16v-15.9h8.2V229h-8.2v-17.7h-16V229h-8.2V188.5z"/>
	<path d="M702.5,188.5h8.2v27.1l15.6-27.1h8.6V229h-8.2v-26.4L711.3,229h-8.8V188.5z"/>
	<path d="M758.8,188.5h12.2l7.3,27.6l7.2-27.6h12.3V229h-7.6v-31.9l-8,31.9h-7.9l-8-31.9V229h-7.6V188.5z"/>
	<path d="M806,188.5h30v6.8h-21.9v9h20.3v6.8h-20.3v11h22.6v6.8H806V188.5z"/>
	<path d="M838.9,222.2h3.5l13.1-33.7h8.6c0,0,13.4,33.6,13.4,33.7h3.5v18.1h-6.7V229h-28.7v11.2h-6.7V222.2z M868.9,222.2l-9.1-24.2
		l-8.9,24.2H868.9z"/>
	<path d="M884.5,188.5h8.2v27.1l15.6-27.1h8.6V229h-8.2v-26.4L893.3,229h-8.8V188.5z"/>
	<path d="M925.3,188.5h8.2v27.1l15.6-27.1h8.6V229h-8.2v-26.4L934.1,229h-8.8V188.5z"/>
</g>
</svg>
