<?xml version="1.0" encoding="utf-8"?>
<!-- Generator: Adobe Illustrator 20.0.0, SVG Export Plug-In . SVG Version: 6.00 Build 0)  -->
<svg version="1.1" id="Layer_1" xmlns="http://www.w3.org/2000/svg" xmlns:xlink="http://www.w3.org/1999/xlink" x="0px" y="0px"
	 viewBox="0 0 500 232" style="enable-background:new 0 0 500 232;" xml:space="preserve">
<style type="text/css">
	.st0{fill:#D6FA13;}
	.st1{fill:#201600;}
</style>
<g>
	<path class="st0" d="M500,36.1c0-3-0.3-6.2-1.3-8.9c-3-8-6.7-15.5-14.3-20.5c-7-4.6-13-6.7-20.7-6.7C310.9,0,158.1,0,5.3,0H0v5.1
		c0,63.7,0,127.3,0,191c0,2.4,0.3,4.7,0.8,7.1c2.3,11,8.7,18.9,18.2,24.2c5.3,3,11.3,4.6,17.6,4.6c152.8,0,305.6,0,458.4,0h4.7
		c0.1-0.5,0.2-0.7,0.2-0.9C500,166.1,500,101.1,500,36.1z M443,96v78.5l-1.2,1.9l-0.6,0.9c-1.8,1.5-3.5,2.8-5.9,2.7
		c-0.8-0.1-1.7,0-2.5,0H283v-5c0-9.3,0-18.7,0-28c0-4.5,2.2-13.8,4.6-19.1c1.5-3.2,3.7-6,6.3-8.4c4.6-4.2,9.6-7.9,15.3-10.2
		c5-2,9.8-4.4,14.8-6.4c2.6-1,5-2.3,7.6-3.4c3.8-1.5,7.7-3.3,10.2-7.4V81.3l-1.4-1.4h-2.1c-20.8,0-41.7,0-62.5,0
		c-2,0-3.8,0.3-5.6,1.3c-1.5,4.7-3,9.6-4.6,14.5c-2.1,6.6-4.5,13.2-6.5,19.8c-1.5,5.2-3.4,10.3-4.8,15.5c-1.7,6.6-4.3,12.9-6.2,19.4
		c-1.5,5.4-3.4,10.6-5,15.9c-0.9,3.2-1.6,6.3-3.2,9.2c-1.5,2.9-3.5,4.4-6.7,4.4c-13,0-26,0-38.9-0.2c-2.4-0.6-3.7-2.7-5.3-4.1
		c-0.6-3.9-2.1-7.6-3.4-11.2c-2.1-5.8-3.5-11.8-5.7-17.6c-2.8-7.5-4.8-15.4-7.1-23.1c-2.3-7.4-4.6-14.7-7-22.1
		c-1.5-4.6-2.8-9.1-4.4-13.7c-0.8-2.3-0.5-5.1-3.1-7h-30.1c-0.4,0.4-0.9,0.9-1.3,1.3c0,30.3,0,60.7,0,91c-1.2,1.2-1.7,2.6-2.1,4.2
		c-3.4,1.8-7,2.5-11,2.4c-8.5-0.2-17-0.1-25.4-0.1l-1.5-1.5c0-30.5,0-61,0-91.5c0-2.1,0.1-4.2-1.9-6c-9,0-18.5-0.1-28,0
		c-4.2,0.1-7.1-1.1-8.2-5.5V49.7v0.2h136c0.6,0.1,1.3-0.3,1.9,0.3c1.3,1.3,2.6,2.6,4.1,4.2c-0.3,1.5,0.5,3.1,0.9,4.7
		c1.5,6.3,3.6,12.5,5.2,18.9c1.1,4.5,2.6,8.9,4,13.3c0.9,2.9,2,5.9,2.7,8.8c0.6,2.9,1.7,5.7,2.4,8.6c0.8,3.1,1.7,6.3,2.7,9.3
		c1.6,4.7,2.9,9.5,3.9,14.3l0.1,0.4l1,2.9c2.3,0.4,3.5-0.1,4-2.1c1.3-4.8,2.4-9.7,4-14.3c2.5-7.2,4.3-14.5,6.5-21.8
		c1.7-5.4,3.2-11.1,4.6-16.6c1.2-4.6,2.8-9.2,4.1-13.8c1.3-4.3,2.7-8.6,4-13.1l4.2-4.2H333c3.8,0,7.7-0.3,11.5,0.1
		c5.5,0.5,11,1.2,16.3,2.9c8.5,2.7,14,8.3,17.5,16.3c0.7,1.5,1.2,3.5,1.2,4.9c-0.1,3.9,1.8,7.6,1.2,11.6c-1,7-1.6,14-5,20.4
		c-1.4,2.6-4.4,5.8-7.1,8.5c-5.9,5.8-13.4,8.3-20.8,11.4c-6.7,2.8-13.7,4.8-20.1,8.3c-3.4,1.9-5.9,4.1-6.2,8.4
		c-0.1,1.7-1,3.3-0.9,5.1c0.1,1,0.9,1.3,1.4,2h82.3c1.5-1.9,1.4-4,1.4-6c0-29.5,0-59,0-88.5v-5.2h32.9c0.3,0.3,0.8,0.9,1.3,1.5
		c2,1.9,2.9,4,2.8,6.9C442.9,71,443,83.5,443,96z"/>
	<path class="st1" d="M443,96v78.5l-1.2,1.9l-0.6,0.9c-1.8,1.5-3.5,2.8-5.9,2.7c-0.8-0.1-1.7,0-2.5,0H283v-5c0-9.3,0-18.7,0-28
		c0-4.5,2.2-13.8,4.6-19.1c1.5-3.2,3.7-6,6.3-8.4c4.6-4.2,9.6-7.9,15.3-10.2c5-2,9.8-4.4,14.8-6.4c2.6-1,5-2.3,7.6-3.4
		c3.8-1.5,7.7-3.3,10.2-7.4V81.3l-1.4-1.4h-2.1c-20.8,0-41.7,0-62.5,0c-2,0-3.8,0.3-5.6,1.3c-1.5,4.7-3,9.6-4.6,14.5
		c-2.1,6.6-4.5,13.2-6.5,19.8c-1.5,5.2-3.4,10.3-4.8,15.5c-1.7,6.6-4.3,12.9-6.2,19.4c-1.5,5.4-3.4,10.6-5,15.9
		c-0.9,3.2-1.6,6.3-3.2,9.2c-1.5,2.9-3.5,4.4-6.7,4.4c-13,0-26,0-38.9-0.2c-2.4-0.6-3.7-2.7-5.3-4.1c-0.6-3.9-2.1-7.6-3.4-11.2
		c-2.1-5.8-3.5-11.8-5.7-17.6c-2.8-7.5-4.8-15.4-7.1-23.1c-2.3-7.4-4.6-14.7-7-22.1c-1.5-4.6-2.8-9.1-4.4-13.7
		c-0.8-2.3-0.5-5.1-3.1-7h-30.1c-0.4,0.4-0.9,0.9-1.3,1.3c0,30.3,0,60.7,0,91c-1.2,1.2-1.7,2.6-2.1,4.2c-3.4,1.8-7,2.5-11,2.4
		c-8.5-0.2-17-0.1-25.4-0.1l-1.5-1.5c0-30.5,0-61,0-91.5c0-2.1,0.1-4.2-1.9-6c-9,0-18.5-0.1-28,0c-4.2,0.1-7.1-1.1-8.2-5.5V49.7v0.2
		h136c0.6,0.1,1.3-0.3,1.9,0.3c1.3,1.3,2.6,2.6,4.1,4.2c-0.3,1.5,0.5,3.1,0.9,4.7c1.5,6.3,3.6,12.5,5.2,18.9c1.1,4.5,2.6,8.9,4,13.3
		c0.9,2.9,2,5.9,2.7,8.8c0.6,2.9,1.7,5.7,2.4,8.6c0.8,3.1,1.7,6.3,2.7,9.3c1.6,4.7,2.9,9.5,3.9,14.3c0,0.1,0.1,0.3,0.1,0.4l1,2.9
		c2.3,0.4,3.5-0.1,4-2.1c1.3-4.8,2.4-9.7,4-14.3c2.5-7.2,4.3-14.5,6.5-21.8c1.7-5.4,3.2-11.1,4.6-16.6c1.2-4.6,2.8-9.2,4.1-13.8
		c1.3-4.3,2.7-8.6,4-13.1l4.2-4.2H333c3.8,0,7.7-0.3,11.5,0.1c5.5,0.5,11,1.2,16.3,2.9c8.5,2.7,14,8.3,17.5,16.3
		c0.7,1.5,1.2,3.5,1.2,4.9c-0.1,3.9,1.8,7.6,1.2,11.6c-1,7-1.6,14-5,20.4c-1.4,2.6-4.4,5.8-7.1,8.5c-5.9,5.8-13.4,8.3-20.8,11.4
		c-6.7,2.8-13.7,4.8-20.1,8.3c-3.4,1.9-5.9,4.1-6.2,8.4c-0.1,1.7-1,3.3-0.9,5.1c0.1,1,0.9,1.3,1.4,2h82.3c1.5-1.9,1.4-4,1.4-6
		c0-29.5,0-59,0-88.5v-5.2h32.9c0.3,0.3,0.8,0.9,1.3,1.5c2,1.9,2.9,4,2.8,6.9C442.9,71,443,83.5,443,96z"/>
</g>
</svg>
